HIERARCHY
ROOT hip
{
	OFFSET 0.000000 0.000000 0.000000 
	CHANNELS 6 Xposition Yposition Zposition Xrotation Zrotation Yrotation
	JOINT abdomen
	{
		OFFSET 0.000000 3.402643 0.000000 
		CHANNELS 3 Xrotation Zrotation Yrotation
		JOINT chest
		{
			OFFSET 0.000000 8.438565 -0.680529 
			CHANNELS 3 Xrotation Zrotation Yrotation
			JOINT neck
			{
				OFFSET 0.000000 10.207942 -0.272212 
				CHANNELS 3 Xrotation Zrotation Yrotation
				JOINT head
				{
					OFFSET 0.000000 3.130431 0.000000 
					CHANNELS 3 Xrotation Zrotation Yrotation
					End Site
					{
						OFFSET 0.000000 3.130435 0.000000 
					}
				}
			}
			JOINT lCollar
			{
				OFFSET 3.470700 6.669187 -0.816635 
				CHANNELS 3 Yrotation Zrotation Xrotation
				JOINT lShldr
				{
					OFFSET 3.198488 0.000000 0.000000 
					CHANNELS 3 Zrotation Yrotation Xrotation
					JOINT lForeArm
					{
						OFFSET 10.139888 0.000000 0.000000 
						CHANNELS 3 Yrotation Zrotation Xrotation
						JOINT lHand
						{
							OFFSET 8.370511 0.000000 0.000000 
							CHANNELS 3 Zrotation Yrotation Xrotation
							End Site
							{
								OFFSET 4.083176 0.000000 0.000000 
							}
						}
					}
				}
			}
			JOINT rCollar
			{
				OFFSET -3.470700 6.669187 -0.816635 
				CHANNELS 3 Yrotation Zrotation Xrotation
				JOINT rShldr
				{
					OFFSET -3.198488 0.000000 0.000000 
					CHANNELS 3 Zrotation Yrotation Xrotation
					JOINT rForeArm
					{
						OFFSET -10.139888 0.000000 0.000000 
						CHANNELS 3 Yrotation Zrotation Xrotation
						JOINT rHand
						{
							OFFSET -8.370511 0.000000 0.000000 
							CHANNELS 3 Zrotation Yrotation Xrotation
							End Site
							{
								OFFSET -4.083176 0.000000 0.000000 
							}
						}
					}
				}
			}
		}
	}
	JOINT lThigh
	{
		OFFSET 5.308129 -1.633274 1.361059 
		CHANNELS 3 Xrotation Zrotation Yrotation
		JOINT lShin
		{
			OFFSET -2.041588 -20.007561 0.000000 
			CHANNELS 3 Xrotation Zrotation Yrotation
			JOINT lFoot
			{
				OFFSET 0.000000 -19.190928 -1.224953 
				CHANNELS 3 Xrotation Yrotation Zrotation
				End Site
				{
					OFFSET 0.000000 -2.449906 4.627600 
				}
			}
		}
	}
	JOINT rThigh
	{
		OFFSET -5.308129 -1.633274 1.361059 
		CHANNELS 3 Xrotation Zrotation Yrotation
		JOINT rShin
		{
			OFFSET 2.041588 -20.007561 0.000000 
			CHANNELS 3 Xrotation Zrotation Yrotation
			JOINT rFoot
			{
				OFFSET 0.000000 -19.190928 -1.224953 
				CHANNELS 3 Xrotation Yrotation Zrotation
				End Site
				{
					OFFSET 0.000000 -2.449906 4.627600 
				}
			}
		}
	}
}
MOTION
Frames: 13
Frame Time: 0.066667
-0.008013 50.967350 0.149073 10.313200 -6.326390 -2.289740 4.566060 4.272120 -2.252540 0.625162 11.389200 -0.819182 -0.113775 0.272082 -0.207944 -8.866860 -6.505220 4.862090 4.607910 -12.952000 0.240346 -67.180000 -1.690950 33.050800 -66.637802 -0.287618 39.482300 17.871000 -3.818700 -3.895660 3.350710 18.065300 1.038290 51.817799 -4.434030 3.954740 93.979500 0.233410 29.864799 -4.923820 -5.948310 -8.102360 -16.109140 8.523159 1.143152 107.332520 -2.717891 -0.908370 17.440657 8.011567 -5.644874 -27.753218 10.829093 -6.317381 34.657631 -3.472537 -1.234223 -16.198336 0.647986 -4.067998 
-0.008013 51.463993 0.149073 13.834600 -3.809760 -3.628860 1.999820 2.301970 1.379880 -1.996690 8.928040 3.568030 0.305165 0.004304 -0.527129 -8.986130 -5.605490 -0.879454 8.370780 -5.200300 4.932460 -66.680000 18.797800 29.355801 -59.382999 -0.200266 50.190399 18.669001 9.870660 -3.854680 16.154301 5.495230 -2.812590 58.848202 11.963500 0.381773 106.728996 0.379351 21.149500 -4.848970 -5.087350 -5.542900 -39.659142 4.062238 -4.603737 112.797241 -2.405773 -1.033208 15.260756 10.097486 -6.512833 -15.358970 8.034930 -3.043979 36.273243 -2.427447 -0.946840 -16.609922 1.024942 -0.573182 
-0.008018 53.459061 0.149073 14.776600 0.231070 -7.107290 0.050439 0.293495 5.396800 -1.808880 4.784830 6.836870 -0.312876 -0.050232 -0.180977 -6.623380 -5.177820 -4.333060 12.161700 9.708600 8.811570 -74.435097 22.972500 30.837601 -60.815701 -0.155302 49.269699 20.625799 8.849510 -3.907520 19.629999 -6.257230 -7.600680 69.402496 28.284401 19.768101 114.660004 -0.062139 27.432600 -3.173770 3.742550 -3.492780 -53.631607 1.025390 -3.435844 95.404831 -2.402787 1.449188 8.996959 12.502651 -3.147202 4.456961 3.564650 1.113674 15.597849 -3.032596 1.502224 10.513442 3.436120 -4.691435 
-0.008013 55.145214 0.149073 14.148400 3.000650 -10.987500 0.040614 -3.401000 12.994000 -2.206670 5.063100 10.622500 -0.187213 -0.047691 -0.259137 -6.217570 -6.732590 -12.342600 11.613100 14.376100 8.589080 -67.374001 25.173401 38.360199 -66.899696 -0.301908 49.269699 22.876200 12.999700 -3.703010 19.828100 -13.361300 -8.727670 68.587898 28.395000 24.875799 113.914001 -0.085627 25.857000 -19.706499 5.752330 -3.706830 -60.101887 0.107193 1.001373 75.460762 0.960250 5.899074 -13.585569 12.246313 -4.366127 17.020472 -3.270445 7.099399 17.369305 1.420655 -0.102899 11.139837 -3.225760 -3.806245 
-0.008013 54.864983 0.149073 13.714900 3.254720 -11.487800 -0.177618 -3.101300 12.977000 -1.631400 4.075460 12.908700 -0.186085 -0.064791 -0.263667 -6.168960 -6.174780 -13.854800 12.748500 15.840100 8.413300 -64.891197 24.244900 41.349800 -69.028297 -0.203261 49.338299 22.746201 12.641200 -3.909650 17.747400 -12.647800 -6.433900 73.578499 26.276501 25.023300 113.030998 -0.125349 25.708799 -18.674999 5.794520 -3.951420 -54.355686 1.683147 4.274503 37.444504 1.040994 4.751246 -16.153957 5.950136 -8.383519 11.965393 -2.302063 8.724078 37.588589 1.205483 -0.107348 31.886814 -0.742010 -2.131630 
-0.008013 53.728909 0.149073 13.687700 2.740360 -9.717220 -1.609060 -1.681600 12.160900 -0.465666 1.409550 10.867600 -0.187522 -0.088169 -0.266704 -6.396060 -3.442790 -13.586800 12.344600 12.969800 7.892300 -67.371803 17.099701 40.159000 -64.035202 -0.179303 49.339298 26.391100 12.573700 -3.858010 15.073300 -8.091490 -5.129560 75.711403 12.763800 22.933100 105.580002 -0.038146 25.616899 -20.106600 8.023660 -4.000700 -37.533844 -0.556992 6.609588 1.575402 -1.390749 4.263456 -1.840870 2.048869 -14.195729 6.526320 -1.902101 5.062295 64.019928 1.156912 0.188349 15.998656 -1.471857 -2.136689 
-0.008013 52.217255 0.149073 14.038800 2.743610 -7.160930 -3.369810 -2.533700 8.884970 1.261090 0.133347 10.269000 -0.188393 -0.112816 -0.270582 -6.699780 -0.743300 -12.968600 5.528300 7.375010 6.464010 -68.026802 12.993300 35.109501 -59.893002 -0.337310 45.669102 26.445299 12.789800 -3.733670 12.431500 -4.421640 -2.657560 76.872398 3.677670 17.684601 100.732002 0.005301 35.294300 -13.176600 9.375200 -3.859430 -37.030754 -2.802442 6.918892 8.892208 -1.182534 3.710147 0.053047 2.245484 -3.702419 -0.311907 -1.404687 4.026455 77.783485 3.007136 -0.244360 19.301361 -0.998297 -2.173836 
-0.008013 51.546810 0.149073 13.754400 6.677690 -1.788980 -2.364240 -9.298990 6.342630 0.962135 1.217640 3.795680 -0.159257 -0.101213 -0.273347 -5.985180 2.323380 -9.467670 -1.254240 -4.109590 5.264570 -59.533298 -6.637410 28.549601 -66.116402 -0.318501 52.442600 23.473101 10.274300 -3.787240 4.245470 6.741160 -3.322030 69.745102 -9.041080 20.567600 96.605904 -0.008628 25.242100 -10.984700 0.518619 -3.894470 -32.161556 -9.676581 3.276561 36.865479 -1.259067 2.470776 -17.487818 1.361205 0.238493 -17.304827 -4.705783 -0.005815 103.927673 1.751559 -0.318943 19.593067 -0.517149 -5.877398 
-0.008013 51.223797 0.149073 10.621400 6.229680 6.680150 2.333000 -10.625600 1.923210 3.720770 2.714690 -8.602080 -0.079278 -0.107108 -0.207986 -7.824490 5.205100 -0.831978 -2.739720 -12.090200 4.532620 -48.517399 -26.977600 14.348700 -84.923798 -0.182995 46.012600 26.422100 4.088870 -3.985410 1.584380 8.469270 -2.579500 61.190201 -18.776800 27.966000 86.664597 0.083009 12.584200 3.224470 10.598000 -3.949580 -18.172340 -12.372573 -3.716525 40.438198 -1.816434 -0.307580 -21.121193 2.391507 -1.527061 -28.833771 -9.559178 -5.332752 108.094543 2.421908 0.016456 8.398562 -1.076726 -10.389499 
-0.008013 52.485161 0.149073 12.128600 0.841555 9.249450 1.184420 -6.507200 -6.053350 3.813380 4.531660 -12.988100 -0.063518 -0.100191 -0.179873 -8.731520 5.656600 8.289400 -8.507840 -4.512370 4.481790 -55.986599 -35.993301 2.243030 -100.922997 -0.093554 43.390900 27.196600 3.329470 -3.917800 -5.766480 1.712530 0.115727 58.181702 -22.520000 32.292900 87.162598 0.148417 22.946800 7.930790 21.030500 -3.602060 -2.563920 -5.292882 -8.892420 29.325640 -1.486326 -1.616706 -2.599926 1.413273 -0.690638 -47.866020 -6.181067 -4.153842 103.751160 2.450664 1.700495 5.311029 -5.644218 -9.220222 
-0.008013 54.408340 0.149073 13.600300 -1.314390 9.297670 -0.114414 -3.669150 -12.980300 4.202670 4.073470 -11.250100 -0.060151 -0.089693 -0.160278 -8.238720 4.213520 11.394100 -9.939000 7.667130 4.519420 -48.939400 -43.812698 1.862450 -112.411003 -0.137492 53.636799 36.103199 8.004150 -3.844910 -6.343560 -1.595870 1.314600 59.601101 -26.931999 34.238400 86.663902 0.228822 25.351900 3.664190 19.897301 -3.824620 17.198450 0.185772 -7.085824 7.350834 -0.277198 -0.349945 29.938007 0.473762 -0.409899 -59.139809 -4.433954 -7.091717 90.019989 0.644654 -1.308870 4.696128 -6.115561 -9.016366 
-0.008013 55.612881 0.149073 14.688500 -3.409220 11.572000 -2.048910 -1.231640 -17.560499 4.672720 2.956870 -11.023700 -0.082485 -0.087775 -0.162587 -7.615120 4.108290 13.458100 -16.286501 17.232000 4.267540 -61.052200 -44.706902 7.484610 -113.320000 -0.164838 51.371498 31.218500 10.296300 -3.861080 -10.690000 -5.336500 0.875320 61.418499 -28.899300 36.808300 75.289497 0.258634 39.749401 1.564420 14.515500 -3.910900 11.028764 2.279907 -10.352575 41.179035 -1.326306 -0.634831 28.284685 1.263111 -1.636734 -61.245186 -5.819185 -11.636406 52.461109 -0.811452 -5.447212 3.168654 -2.302221 1.099047 
-0.008013 54.547565 0.149073 13.229400 -1.211000 8.655090 0.279138 -0.984117 -15.560400 4.533310 2.315870 -10.378900 -0.110505 -0.090157 -0.175465 -8.449710 3.670530 13.498400 -14.775000 13.047500 4.447930 -65.119400 -37.466099 13.515900 -109.358002 -0.050878 62.088200 30.285101 8.886140 -3.951000 -10.357300 -2.811870 0.533280 57.367401 -29.246500 31.684299 75.122002 0.370423 45.465801 -7.387270 -3.257570 -3.914220 7.586923 -0.527706 -8.343070 60.209167 -1.568109 -0.663877 13.210473 -0.768772 -2.313267 -46.370178 -2.674843 -10.623896 15.713346 -0.154922 -8.228520 -12.521564 -2.737320 10.217187 
